<svg xmlns="http://www.w3.org/2000/svg" viewBox="-8 0 38 38" fill="#000036"><path fill-rule="evenodd" clip-rule="evenodd" d="M19.4459 25.4589C19.2826 25.4589 19.1235 25.4757 18.9665 25.5029C18.9665 25.5029 18.9644 25.5029 18.9623 25.5008C17.6727 24.5464 15.5416 22.7883 15.5625 21.4048C15.9101 20.9486 16.1173 20.3814 16.1173 19.7639C16.1173 19.2909 15.9959 18.8472 15.7844 18.4621C15.8221 18.1942 16.9526 15.7705 19.0942 14.4541C19.0942 14.4541 19.1004 14.4541 19.1025 14.4541C19.2323 14.4729 19.3663 14.4855 19.5003 14.4855C19.538 14.4855 19.5756 14.4813 19.6154 14.4792C19.6259 14.4792 19.6364 14.4792 19.6447 14.4792C19.8289 14.4708 20.009 14.4436 20.1806 14.4017C20.2204 14.3934 20.2602 14.3829 20.3 14.3703C20.3335 14.3599 20.367 14.3515 20.3984 14.341C21.556 13.9769 22.3955 12.9011 22.3955 11.6244C22.3955 11.616 22.3955 11.6055 22.3955 11.5972C22.3955 11.5951 22.3955 11.593 22.3955 11.5909C22.3955 9.99185 21.0997 8.6963 19.5003 8.6963C18.8304 8.6963 18.217 8.92443 17.7271 9.30745C14.9952 9.08978 8.98709 5.19266 8.98709 5.19266C9.01849 4.97499 9.04151 4.75314 9.04151 4.52501C9.03942 2.0239 7.01717 0 4.51971 0C2.02225 0 0 2.0239 0 4.51873C0 7.01355 2.02434 9.03745 4.51971 9.03745C6.08141 9.03745 7.45888 8.24422 8.27113 7.03867C8.27113 7.03867 15.1334 8.80723 16.4355 10.8081C16.4837 10.8835 16.5674 10.9923 16.6428 11.1304C16.6197 11.279 16.603 11.4297 16.603 11.5846C16.603 12.2271 16.8144 12.8174 17.1682 13.2967C17.1849 13.3218 17.2038 13.3448 17.2226 13.3699C17.2498 13.4034 17.2771 13.4369 17.3043 13.4704C17.344 13.5164 17.3859 13.5625 17.4278 13.6064C17.4571 13.6357 17.4864 13.6629 17.5157 13.6922C17.5387 13.7132 17.5597 13.7383 17.5848 13.7592C17.5178 14.6592 15.5102 16.7061 14.3672 17.2273C14.0657 17.1121 13.7392 17.0452 13.3958 17.0452C11.8949 17.0452 10.6765 18.2633 10.6765 19.7639C10.6765 20.3437 10.8586 20.8795 11.1684 21.3211C11.6457 22.0411 12.4601 22.5141 13.3875 22.5141C13.5424 22.5141 13.6973 22.4367 13.8417 22.4722C15.372 22.8594 17.4257 25.6389 17.3106 26.4154C17.3106 26.4196 17.3064 26.4217 17.3064 26.4238C16.8605 26.9282 16.5883 27.5875 16.5883 28.3137C16.5883 28.4916 16.6072 28.6633 16.6365 28.8307C15.8158 29.266 12.5857 30.9237 10.9926 30.8588C10.1678 29.5193 8.69191 28.6235 7.00461 28.6235C6.89156 28.6235 6.78061 28.6319 6.66966 28.6402C6.36611 27.4807 5.41151 23.5438 6.02907 22.1729C6.90203 21.7209 7.50075 20.8104 7.50075 19.7598C7.50075 18.2591 6.28238 17.041 4.78139 17.041C3.2804 17.041 2.06203 18.2591 2.06203 19.7598C2.06203 21.0532 2.96639 22.1353 4.17848 22.4095C5.06609 23.7469 4.91118 27.9265 4.84419 29.1551C3.3432 29.9358 2.31742 31.5034 2.31742 33.3097C2.31742 35.254 3.5023 36.9221 5.18961 37.6316C5.73599 37.8661 6.33681 37.9958 6.96902 37.9958C6.9753 37.9958 6.98158 37.9958 6.98577 37.9958C6.98995 37.9958 6.99833 37.9958 7.00252 37.9958C9.58999 37.9958 11.6897 35.8987 11.6897 33.3097C11.6897 32.9894 11.6562 32.6755 11.5955 32.3741C12.6883 31.2648 16.4334 30.6516 17.5911 30.4862C18.0893 30.9111 18.7362 31.1706 19.4438 31.1706C21.0222 31.1706 22.3013 29.8918 22.3013 28.3137C22.3013 26.7356 21.0222 25.4568 19.4438 25.4568L19.4459 25.4589Z"/></svg>
